<?xml version="1.0" encoding="utf-8"?>
<!-- Generator: Adobe Illustrator 18.0.0, SVG Export Plug-In . SVG Version: 6.00 Build 0)  -->
<!DOCTYPE svg PUBLIC "-//W3C//DTD SVG 1.1//EN" "http://www.w3.org/Graphics/SVG/1.1/DTD/svg11.dtd">
<svg version="1.1" id="Layer_1" xmlns="http://www.w3.org/2000/svg" xmlns:xlink="http://www.w3.org/1999/xlink" x="0px" y="0px"
	 viewBox="15.2 4.2 68.1 57.8" enable-background="new 15.2 4.2 68.1 57.8" xml:space="preserve">
<path fill="#B95D40" d="M49.2,62c-0.5,0-0.9-0.2-1.2-0.6L15.5,16.9c-0.2-0.3-0.3-0.8-0.3-1.2c0.1-0.4,0.3-0.8,0.7-1L33.7,4.4
	c0.2-0.1,0.5-0.2,0.7-0.2h29.6c0.3,0,0.5,0.1,0.7,0.2l17.8,10.4c0.4,0.2,0.6,0.6,0.7,1c0.1,0.4,0,0.8-0.3,1.2L50.4,61.3
	C50.2,61.7,49.7,62,49.2,62z M18.8,16.5L49.2,58l30.4-41.5l-16-9.3H34.8L18.8,16.5z"/>
<path fill="#B95D40" d="M49.2,59c-0.6,0-1.2-0.4-1.4-1.1L33,7.6c-0.2-0.8,0.2-1.6,1-1.8c0.8-0.2,1.6,0.2,1.8,1l14.8,50.4
	c0.2,0.8-0.2,1.6-1,1.8C49.5,59,49.4,59,49.2,59z"/>
<path fill="#B95D40" d="M49.2,59c-0.1,0-0.3,0-0.4-0.1c-0.8-0.2-1.2-1.1-1-1.8L62.6,6.7c0.2-0.8,1.1-1.2,1.8-1
	c0.8,0.2,1.2,1.1,1,1.8L50.7,57.9C50.5,58.6,49.9,59,49.2,59z"/>
<path fill="#B95D40" d="M78.9,19H19.6c-0.8,0-1.5-0.7-1.5-1.5s0.7-1.5,1.5-1.5h59.3c0.8,0,1.5,0.7,1.5,1.5S79.7,19,78.9,19z"/>
</svg>
