<?xml version="1.0" encoding="utf-8"?>
<!-- Generator: Adobe Illustrator 18.0.0, SVG Export Plug-In . SVG Version: 6.00 Build 0)  -->
<!DOCTYPE svg PUBLIC "-//W3C//DTD SVG 1.1//EN" "http://www.w3.org/Graphics/SVG/1.1/DTD/svg11.dtd">
<svg version="1.1" id="Layer_1" xmlns="http://www.w3.org/2000/svg" xmlns:xlink="http://www.w3.org/1999/xlink" x="0px" y="0px"
	 viewBox="13.7 12.4 71 41.3" enable-background="new 13.7 12.4 71 41.3" xml:space="preserve">
<path fill="#B95D40" d="M48.8,53.7c-1.7,0-3.3-0.6-4.2-1.3C43,51.4,31.4,41.7,30,40.6l-4-3.4c-0.6-0.5-0.7-1.5-0.2-2.1
	c0.5-0.6,1.5-0.7,2.1-0.2l4,3.4c6.3,5.3,13.3,11,14.3,11.7c0.7,0.5,2,0.9,3,0.8c0.9-0.1,1.1-0.5,1.2-0.9c0.2-0.5,0.6-0.8,1-0.9
	c0.5-0.1,1,0,1.4,0.3c0.9,0.8,2.2,0.9,3.1,0.5c0.5-0.2,1-0.5,1.1-1.2c0.1-0.6,0.4-1,0.9-1.3c0.5-0.2,1.1-0.1,1.5,0.3
	c0.4,0.4,1.4,0.4,2.2,0c0.5-0.2,1.2-0.7,1.1-1.7c-0.1-0.6,0.2-1.1,0.7-1.4c0.5-0.3,1.1-0.3,1.6,0.1c0.4,0.3,1,0.1,1.3-0.2
	c0.6-0.5,0.9-1.4,0.4-2.5c-1.7-3.5-10.7-12.1-16.2-15.9l0,0c-1.6,0.6-1.7,0.6-2.9,0.7c-1.5,2.1-4.4,5.8-8.8,4.3
	c-1.4-0.5-2.3-1.5-2.7-2.9c-0.7-3.2,1.7-7.7,3.7-9.7c3.3-3.3,9.4-6.1,15.7-3.3c5.8,2.6,9.4,3.7,9.4,3.7c0.8,0.2,1.2,1.1,1,1.8
	c-0.2,0.8-1,1.2-1.8,1c-0.2,0-3.8-1.1-9.8-3.8c-4.9-2.2-9.7,0.1-12.4,2.7c-1.6,1.6-3.3,5.1-2.9,6.9c0.1,0.4,0.3,0.7,0.7,0.8
	c2.2,0.7,3.8-0.9,5.8-3.8c0.2-0.4,0.6-0.6,1.1-0.6l0.5-0.1c1-0.1,1-0.1,2.3-0.6l0.8-0.3c0.4-0.2,0.9-0.1,1.3,0.2
	c5.4,3.6,15.7,13,17.9,17.5c1,2.2,0.6,4.6-1.1,6.1c-0.9,0.7-1.9,1.1-2.9,1.1c-0.4,1.1-1.3,2-2.5,2.6c-1.2,0.6-2.6,0.8-3.8,0.5
	c-0.5,0.8-1.3,1.4-2.3,1.8c-1.5,0.6-3.3,0.5-4.8-0.2c-0.7,0.7-1.6,1.2-2.7,1.3C49.3,53.7,49,53.7,48.8,53.7L48.8,53.7z"/>
<path fill="#B95D40" d="M44,18.6c-0.1,0-0.1,0-0.2,0c-3-0.3-10.3-0.5-12.6-0.5c-0.7,0.1-1.5-0.6-1.5-1.4c0-0.8,0.6-1.5,1.4-1.5
	c2.5-0.1,9.8,0.1,13,0.5c0.8,0.1,1.4,0.8,1.3,1.6C45.4,18.1,44.8,18.6,44,18.6z"/>
<path fill="#B95D40" d="M68.7,42c-0.4,0-0.9-0.2-1.2-0.6c-0.5-0.7-0.4-1.6,0.3-2.1l2.9-2.2c0.7-0.5,1.6-0.4,2.1,0.3s0.4,1.6-0.3,2.1
	l-2.9,2.2C69.3,41.9,69,42,68.7,42z"/>
<path fill="#B95D40" d="M64.3,47.2c-0.3,0-0.6-0.1-0.9-0.3c-1.6-1.2-9.7-8.8-10-9.1c-0.6-0.6-0.6-1.5-0.1-2.1
	c0.6-0.6,1.5-0.6,2.1-0.1c2.3,2.2,8.6,8,9.8,9c0.6,0.5,0.8,1.4,0.2,2.1C65.2,47,64.8,47.2,64.3,47.2z"/>
<path fill="#B95D40" d="M58.5,50.1c-0.3,0-0.7-0.1-0.9-0.3c-2-1.6-7.7-6.7-8.5-7.6c-0.6-0.6-0.5-1.5,0.1-2.1
	c0.6-0.6,1.5-0.5,2.1,0.1c0.7,0.7,6.2,5.7,8.2,7.3c0.6,0.5,0.7,1.4,0.2,2.1C59.4,50,58.9,50.1,58.5,50.1z"/>
<path fill="#B95D40" d="M51.8,51.8c-0.3,0-0.7-0.1-1-0.4c-1.9-1.6-4.6-4.3-6.4-6.2c-0.6-0.6-0.5-1.5,0.1-2.1
	c0.6-0.6,1.5-0.5,2.1,0.1c1.7,1.8,4.3,4.4,6.1,5.9c0.6,0.5,0.7,1.5,0.2,2.1C52.6,51.6,52.2,51.8,51.8,51.8z"/>
<path fill="#B95D40" d="M19,42.3c-1.8,0-3.2-0.1-4.2-0.3c-0.7-0.2-1.1-0.8-1.1-1.5c0.1-10.8,2.9-26.2,3-26.9
	c0.1-0.8,0.9-1.3,1.7-1.2c0.4,0.1,9.5,1.5,13.3,2.8c0.6,0.2,1.1,0.9,1,1.5C32,24.5,26.7,40.3,26.5,41c-0.2,0.6-0.7,0.9-1.3,1
	C25.1,42,22,42.3,19,42.3z M16.7,39.3c1.6,0.1,5.5,0,7.3-0.1c1.1-3.3,4.7-14.8,5.6-21.4c-3-0.8-7.8-1.7-10.2-2.1
	C18.7,19.5,17,30.7,16.7,39.3z"/>
<path fill="#B95D40" d="M78.5,41.5c-3.2,0-5.3-0.2-6.5-0.7c-0.4-0.2-0.7-0.5-0.9-1C70,35.7,65.8,23.9,64,21
	c-0.2-0.4-0.3-0.8-0.2-1.2c0.1-0.4,0.4-0.7,0.8-0.9c0.2-0.1,5.3-2.3,10.7-2.3c1.1,0,2.2,0.1,3.3,0.3c0.4,0.1,0.7,0.3,0.9,0.6
	c3.6,5,5.1,20.5,5.2,22.3c0,0.4-0.1,0.8-0.3,1.1c-0.3,0.3-0.6,0.5-1,0.5C83.4,41.4,81.1,41.5,78.5,41.5z M73.7,38.2
	c0.7,0.2,2.1,0.3,4.8,0.3c1.2,0,2.3,0,3.2-0.1c-0.6-5.1-2-15-4.2-18.8c-0.7-0.1-1.3-0.1-2.1-0.1c-3.1,0-6.2,0.9-8,1.5
	C69.4,25.4,72.6,34.2,73.7,38.2z"/>
</svg>
